<svg width="720" height="1160" viewBox="0 0 720 1160" class="keymap" xmlns="http://www.w3.org/2000/svg" xmlns:xlink="http://www.w3.org/1999/xlink">
<style>/* inherit to force styles through use tags */
svg path {
    fill: inherit;
}

/* font and background color specifications */
svg.keymap {
    font-family: SFMono-Regular,Consolas,Liberation Mono,Menlo,monospace;
    font-size: 14px;
    font-kerning: normal;
    text-rendering: optimizeLegibility;
    fill: #24292e;
}

/* default key styling */
rect.key {
    fill: #f6f8fa;
}

rect.key, rect.combo {
    stroke: #c9cccf;
    stroke-width: 1;
}

/* default key side styling, only used is draw_key_sides is set */
rect.side {
    filter: brightness(90%);
}

/* color accent for combo boxes */
rect.combo, rect.combo-separate {
    fill: #cdf;
}

/* color accent for held keys */
rect.held, rect.combo.held {
    fill: #fdd;
}

/* color accent for ghost (optional) keys */
rect.ghost, rect.combo.ghost {
    stroke-dasharray: 4, 4;
    stroke-width: 2;
}

text {
    text-anchor: middle;
    dominant-baseline: middle;
}

/* styling for layer labels */
text.label {
    font-weight: bold;
    text-anchor: start;
    stroke: white;
    stroke-width: 4;
    paint-order: stroke;
}

/* styling for optional footer */
text.footer {
    text-anchor: end;
    dominant-baseline: auto;
    stroke: white;
    stroke-width: 4;
    paint-order: stroke;
}

/* styling for combo tap, and key hold/shifted label text */
text.combo, text.hold, text.shifted {
    font-size: 11px;
}

text.hold {
    text-anchor: middle;
    dominant-baseline: auto;
}

text.shifted {
    text-anchor: middle;
    dominant-baseline: hanging;
}

/* styling for hold/shifted label text in combo box */
text.combo.hold, text.combo.shifted {
    font-size: 8px;
}

/* lighter symbol for transparent keys */
text.trans {
    fill: #7b7e81;
}

/* styling for combo dendrons */
path.combo {
    stroke-width: 1;
    stroke: gray;
    fill: none;
}

/* Start Tabler Icons Cleanup */
/* cannot use height/width with glyphs */
.icon-tabler > path {
    fill: inherit;
    stroke: inherit;
    stroke-width: 2;
}
/* hide tabler's default box */
.icon-tabler > path[stroke="none"][fill="none"] {
    visibility: hidden;
}
/* End Tabler Icons Cleanup */

rect.key {
    fill: #f6f8fa;
    stroke: none;      /* Remove border */
    stroke-width: 0;   /* Border width */
}

rect.key, rect.combo {
    stroke: none;
    stroke-width: 0;
}

text {
    text-anchor: middle;
    dominant-baseline: middle;
    text-transform: lowercase;
}
</style>
<g transform="translate(30, 0)" class="layer-L0">
<text x="0" y="28" class="label">L0:</text>
<g transform="translate(0, 56)">
<g transform="translate(28, 28)" class="key keypos-0">
<rect rx="8" ry="8" x="-24" y="-24" width="47" height="47" class="key"/>
<text x="0" y="0" class="key tap">Q</text>
</g>
<g transform="translate(82, 28)" class="key keypos-1">
<rect rx="8" ry="8" x="-24" y="-24" width="47" height="47" class="key"/>
<text x="0" y="0" class="key tap">W</text>
</g>
<g transform="translate(138, 28)" class="key keypos-2">
<rect rx="8" ry="8" x="-24" y="-24" width="47" height="47" class="key"/>
<text x="0" y="0" class="key tap">E</text>
</g>
<g transform="translate(192, 28)" class="key keypos-3">
<rect rx="8" ry="8" x="-24" y="-24" width="47" height="47" class="key"/>
<text x="0" y="0" class="key tap">R</text>
</g>
<g transform="translate(248, 28)" class="key keypos-4">
<rect rx="8" ry="8" x="-24" y="-24" width="47" height="47" class="key"/>
<text x="0" y="0" class="key tap">T</text>
</g>
<g transform="translate(302, 28)" class="key keypos-5">
<rect rx="8" ry="8" x="-24" y="-24" width="47" height="47" class="key"/>
</g>
<g transform="translate(358, 28)" class="key keypos-6">
<rect rx="8" ry="8" x="-24" y="-24" width="47" height="47" class="key"/>
</g>
<g transform="translate(412, 28)" class="key keypos-7">
<rect rx="8" ry="8" x="-24" y="-24" width="47" height="47" class="key"/>
<text x="0" y="0" class="key tap">Y</text>
</g>
<g transform="translate(468, 28)" class="key keypos-8">
<rect rx="8" ry="8" x="-24" y="-24" width="47" height="47" class="key"/>
<text x="0" y="0" class="key tap">U</text>
</g>
<g transform="translate(522, 28)" class="key keypos-9">
<rect rx="8" ry="8" x="-24" y="-24" width="47" height="47" class="key"/>
<text x="0" y="0" class="key tap">I</text>
</g>
<g transform="translate(578, 28)" class="key keypos-10">
<rect rx="8" ry="8" x="-24" y="-24" width="47" height="47" class="key"/>
<text x="0" y="0" class="key tap">O</text>
</g>
<g transform="translate(632, 28)" class="key keypos-11">
<rect rx="8" ry="8" x="-24" y="-24" width="47" height="47" class="key"/>
<text x="0" y="0" class="key tap">P</text>
</g>
<g transform="translate(28, 82)" class="key keypos-12">
<rect rx="8" ry="8" x="-24" y="-24" width="47" height="47" class="key"/>
<text x="0" y="0" class="key tap">A</text>
<text x="0" y="20" class="key hold">ctrl</text>
</g>
<g transform="translate(82, 82)" class="key keypos-13">
<rect rx="8" ry="8" x="-24" y="-24" width="47" height="47" class="key"/>
<text x="0" y="0" class="key tap">S</text>
<text x="0" y="20" class="key hold">alt</text>
</g>
<g transform="translate(138, 82)" class="key keypos-14">
<rect rx="8" ry="8" x="-24" y="-24" width="47" height="47" class="key"/>
<text x="0" y="0" class="key tap">D</text>
<text x="0" y="20" class="key hold">gui</text>
</g>
<g transform="translate(192, 82)" class="key keypos-15">
<rect rx="8" ry="8" x="-24" y="-24" width="47" height="47" class="key"/>
<text x="0" y="0" class="key tap">F</text>
<text x="0" y="20" class="key hold">shift</text>
</g>
<g transform="translate(248, 82)" class="key keypos-16">
<rect rx="8" ry="8" x="-24" y="-24" width="47" height="47" class="key"/>
<text x="0" y="0" class="key tap">G</text>
</g>
<g transform="translate(302, 82)" class="key keypos-17">
<rect rx="8" ry="8" x="-24" y="-24" width="47" height="47" class="key"/>
</g>
<g transform="translate(358, 82)" class="key keypos-18">
<rect rx="8" ry="8" x="-24" y="-24" width="47" height="47" class="key"/>
</g>
<g transform="translate(412, 82)" class="key keypos-19">
<rect rx="8" ry="8" x="-24" y="-24" width="47" height="47" class="key"/>
<text x="0" y="0" class="key tap">H</text>
</g>
<g transform="translate(468, 82)" class="key keypos-20">
<rect rx="8" ry="8" x="-24" y="-24" width="47" height="47" class="key"/>
<text x="0" y="0" class="key tap">J</text>
<text x="0" y="20" class="key hold">shift</text>
</g>
<g transform="translate(522, 82)" class="key keypos-21">
<rect rx="8" ry="8" x="-24" y="-24" width="47" height="47" class="key"/>
<text x="0" y="0" class="key tap">K</text>
<text x="0" y="20" class="key hold">gui</text>
</g>
<g transform="translate(578, 82)" class="key keypos-22">
<rect rx="8" ry="8" x="-24" y="-24" width="47" height="47" class="key"/>
<text x="0" y="0" class="key tap">L</text>
<text x="0" y="20" class="key hold">alt</text>
</g>
<g transform="translate(632, 82)" class="key keypos-23">
<rect rx="8" ry="8" x="-24" y="-24" width="47" height="47" class="key"/>
<text x="0" y="0" class="key tap">&#x27;&#x27;</text>
<text x="0" y="20" class="key hold">ctrl</text>
</g>
<g transform="translate(28, 138)" class="key keypos-24">
<rect rx="8" ry="8" x="-24" y="-24" width="47" height="47" class="key"/>
<text x="0" y="0" class="key tap">Z</text>
<text x="0" y="20" class="key hold">RALT</text>
</g>
<g transform="translate(82, 138)" class="key keypos-25">
<rect rx="8" ry="8" x="-24" y="-24" width="47" height="47" class="key"/>
<text x="0" y="0" class="key tap">X</text>
</g>
<g transform="translate(138, 138)" class="key keypos-26">
<rect rx="8" ry="8" x="-24" y="-24" width="47" height="47" class="key"/>
<text x="0" y="0" class="key tap">C</text>
</g>
<g transform="translate(192, 138)" class="key keypos-27">
<rect rx="8" ry="8" x="-24" y="-24" width="47" height="47" class="key"/>
<text x="0" y="0" class="key tap">V</text>
</g>
<g transform="translate(248, 138)" class="key keypos-28">
<rect rx="8" ry="8" x="-24" y="-24" width="47" height="47" class="key"/>
<text x="0" y="0" class="key tap">B</text>
</g>
<g transform="translate(302, 138)" class="key keypos-29">
<rect rx="8" ry="8" x="-24" y="-24" width="47" height="47" class="key"/>
</g>
<g transform="translate(358, 138)" class="key keypos-30">
<rect rx="8" ry="8" x="-24" y="-24" width="47" height="47" class="key"/>
</g>
<g transform="translate(412, 138)" class="key keypos-31">
<rect rx="8" ry="8" x="-24" y="-24" width="47" height="47" class="key"/>
<text x="0" y="0" class="key tap">N</text>
</g>
<g transform="translate(468, 138)" class="key keypos-32">
<rect rx="8" ry="8" x="-24" y="-24" width="47" height="47" class="key"/>
<text x="0" y="0" class="key tap">M</text>
</g>
<g transform="translate(522, 138)" class="key keypos-33">
<rect rx="8" ry="8" x="-24" y="-24" width="47" height="47" class="key"/>
<text x="0" y="0" class="key tap">,</text>
</g>
<g transform="translate(578, 138)" class="key keypos-34">
<rect rx="8" ry="8" x="-24" y="-24" width="47" height="47" class="key"/>
<text x="0" y="0" class="key tap">.</text>
</g>
<g transform="translate(632, 138)" class="key keypos-35">
<rect rx="8" ry="8" x="-24" y="-24" width="47" height="47" class="key"/>
<text x="0" y="0" class="key tap">/</text>
<text x="0" y="20" class="key hold">RALT</text>
</g>
<g transform="translate(28, 192)" class="key keypos-36">
<rect rx="8" ry="8" x="-24" y="-24" width="47" height="47" class="key"/>
</g>
<g transform="translate(82, 192)" class="key keypos-37">
<rect rx="8" ry="8" x="-24" y="-24" width="47" height="47" class="key"/>
</g>
<g transform="translate(138, 192)" class="key keypos-38">
<rect rx="8" ry="8" x="-24" y="-24" width="47" height="47" class="key"/>
</g>
<g transform="translate(192, 192)" class="key keypos-39">
<rect rx="8" ry="8" x="-24" y="-24" width="47" height="47" class="key"/>
<text x="0" y="0" class="key tap">tab</text>
<text x="0" y="20" class="key hold">nav</text>
</g>
<g transform="translate(248, 192)" class="key keypos-40">
<rect rx="8" ry="8" x="-24" y="-24" width="47" height="47" class="key"/>
<text x="0" y="0" class="key tap">esc</text>
<text x="0" y="20" class="key hold">sym</text>
</g>
<g transform="translate(302, 192)" class="key keypos-41">
<rect rx="8" ry="8" x="-24" y="-24" width="47" height="47" class="key"/>
</g>
<g transform="translate(358, 192)" class="key keypos-42">
<rect rx="8" ry="8" x="-24" y="-24" width="47" height="47" class="key"/>
</g>
<g transform="translate(412, 192)" class="key keypos-43">
<rect rx="8" ry="8" x="-24" y="-24" width="47" height="47" class="key"/>
<text x="0" y="0" class="key tap">enter</text>
<text x="0" y="20" class="key hold">num</text>
</g>
<g transform="translate(468, 192)" class="key keypos-44">
<rect rx="8" ry="8" x="-24" y="-24" width="47" height="47" class="key"/>
<text x="0" y="0" class="key tap">space</text>
<text x="0" y="20" class="key hold">nav</text>
</g>
<g transform="translate(522, 192)" class="key keypos-45">
<rect rx="8" ry="8" x="-24" y="-24" width="47" height="47" class="key"/>
</g>
<g transform="translate(578, 192)" class="key keypos-46">
<rect rx="8" ry="8" x="-24" y="-24" width="47" height="47" class="key"/>
</g>
<g transform="translate(632, 192)" class="key keypos-47">
<rect rx="8" ry="8" x="-24" y="-24" width="47" height="47" class="key"/>
</g>
</g>
</g>
<g transform="translate(30, 276)" class="layer-L1">
<text x="0" y="28" class="label">L1:</text>
<g transform="translate(0, 56)">
<g transform="translate(28, 28)" class="key keypos-0">
<rect rx="8" ry="8" x="-24" y="-24" width="47" height="47" class="key"/>
<text x="0" y="0" class="key tap">!</text>
</g>
<g transform="translate(82, 28)" class="key keypos-1">
<rect rx="8" ry="8" x="-24" y="-24" width="47" height="47" class="key"/>
<text x="0" y="0" class="key tap">@</text>
</g>
<g transform="translate(138, 28)" class="key keypos-2">
<rect rx="8" ry="8" x="-24" y="-24" width="47" height="47" class="key"/>
<text x="0" y="0" class="key tap">#</text>
</g>
<g transform="translate(192, 28)" class="key keypos-3">
<rect rx="8" ry="8" x="-24" y="-24" width="47" height="47" class="key"/>
<text x="0" y="0" class="key tap">$</text>
</g>
<g transform="translate(248, 28)" class="key keypos-4">
<rect rx="8" ry="8" x="-24" y="-24" width="47" height="47" class="key"/>
<text x="0" y="0" class="key tap">%</text>
</g>
<g transform="translate(302, 28)" class="key keypos-5">
<rect rx="8" ry="8" x="-24" y="-24" width="47" height="47" class="key"/>
</g>
<g transform="translate(358, 28)" class="key keypos-6">
<rect rx="8" ry="8" x="-24" y="-24" width="47" height="47" class="key"/>
</g>
<g transform="translate(412, 28)" class="key keypos-7">
<rect rx="8" ry="8" x="-24" y="-24" width="47" height="47" class="key"/>
<text x="0" y="0" class="key tap">=</text>
</g>
<g transform="translate(468, 28)" class="key keypos-8">
<rect rx="8" ry="8" x="-24" y="-24" width="47" height="47" class="key"/>
<text x="0" y="0" class="key tap">`</text>
</g>
<g transform="translate(522, 28)" class="key keypos-9">
<rect rx="8" ry="8" x="-24" y="-24" width="47" height="47" class="key"/>
<text x="0" y="0" class="key tap">(</text>
</g>
<g transform="translate(578, 28)" class="key keypos-10">
<rect rx="8" ry="8" x="-24" y="-24" width="47" height="47" class="key"/>
<text x="0" y="0" class="key tap">)</text>
</g>
<g transform="translate(632, 28)" class="key keypos-11">
<rect rx="8" ry="8" x="-24" y="-24" width="47" height="47" class="key"/>
<text x="0" y="0" class="key tap">+</text>
</g>
<g transform="translate(28, 82)" class="key keypos-12">
<rect rx="8" ry="8" x="-24" y="-24" width="47" height="47" class="key"/>
<text x="0" y="0" class="key tap">ctrl</text>
</g>
<g transform="translate(82, 82)" class="key keypos-13">
<rect rx="8" ry="8" x="-24" y="-24" width="47" height="47" class="key"/>
<text x="0" y="0" class="key tap">alt</text>
</g>
<g transform="translate(138, 82)" class="key keypos-14">
<rect rx="8" ry="8" x="-24" y="-24" width="47" height="47" class="key"/>
<text x="0" y="0" class="key tap">gui</text>
</g>
<g transform="translate(192, 82)" class="key keypos-15">
<rect rx="8" ry="8" x="-24" y="-24" width="47" height="47" class="key"/>
<text x="0" y="0" class="key tap">shift</text>
</g>
<g transform="translate(248, 82)" class="key keypos-16">
<rect rx="8" ry="8" x="-24" y="-24" width="47" height="47" class="key"/>
<text x="0" y="0" class="key tap">^</text>
</g>
<g transform="translate(302, 82)" class="key keypos-17">
<rect rx="8" ry="8" x="-24" y="-24" width="47" height="47" class="key"/>
</g>
<g transform="translate(358, 82)" class="key keypos-18">
<rect rx="8" ry="8" x="-24" y="-24" width="47" height="47" class="key"/>
</g>
<g transform="translate(412, 82)" class="key keypos-19">
<rect rx="8" ry="8" x="-24" y="-24" width="47" height="47" class="key"/>
<text x="0" y="0" class="key tap">*</text>
</g>
<g transform="translate(468, 82)" class="key keypos-20">
<rect rx="8" ry="8" x="-24" y="-24" width="47" height="47" class="key"/>
<text x="0" y="0" class="key tap">:</text>
</g>
<g transform="translate(522, 82)" class="key keypos-21">
<rect rx="8" ry="8" x="-24" y="-24" width="47" height="47" class="key"/>
<text x="0" y="0" class="key tap">[</text>
</g>
<g transform="translate(578, 82)" class="key keypos-22">
<rect rx="8" ry="8" x="-24" y="-24" width="47" height="47" class="key"/>
<text x="0" y="0" class="key tap">]</text>
</g>
<g transform="translate(632, 82)" class="key keypos-23">
<rect rx="8" ry="8" x="-24" y="-24" width="47" height="47" class="key"/>
<text x="0" y="0" class="key tap">-</text>
</g>
<g transform="translate(28, 138)" class="key trans keypos-24">
<rect rx="8" ry="8" x="-24" y="-24" width="47" height="47" class="key trans"/>
<text x="0" y="0" class="key trans tap">▽</text>
</g>
<g transform="translate(82, 138)" class="key trans keypos-25">
<rect rx="8" ry="8" x="-24" y="-24" width="47" height="47" class="key trans"/>
<text x="0" y="0" class="key trans tap">▽</text>
</g>
<g transform="translate(138, 138)" class="key keypos-26">
<rect rx="8" ry="8" x="-24" y="-24" width="47" height="47" class="key"/>
<text x="0" y="0" class="key tap">\</text>
</g>
<g transform="translate(192, 138)" class="key keypos-27">
<rect rx="8" ry="8" x="-24" y="-24" width="47" height="47" class="key"/>
<text x="0" y="0" class="key tap">|</text>
</g>
<g transform="translate(248, 138)" class="key keypos-28">
<rect rx="8" ry="8" x="-24" y="-24" width="47" height="47" class="key"/>
<text x="0" y="0" class="key tap">&amp;</text>
</g>
<g transform="translate(302, 138)" class="key keypos-29">
<rect rx="8" ry="8" x="-24" y="-24" width="47" height="47" class="key"/>
</g>
<g transform="translate(358, 138)" class="key keypos-30">
<rect rx="8" ry="8" x="-24" y="-24" width="47" height="47" class="key"/>
</g>
<g transform="translate(412, 138)" class="key keypos-31">
<rect rx="8" ry="8" x="-24" y="-24" width="47" height="47" class="key"/>
<text x="0" y="0" class="key tap">~</text>
</g>
<g transform="translate(468, 138)" class="key keypos-32">
<rect rx="8" ry="8" x="-24" y="-24" width="47" height="47" class="key"/>
<text x="0" y="0" class="key tap">;</text>
</g>
<g transform="translate(522, 138)" class="key keypos-33">
<rect rx="8" ry="8" x="-24" y="-24" width="47" height="47" class="key"/>
<text x="0" y="0" class="key tap">{</text>
</g>
<g transform="translate(578, 138)" class="key keypos-34">
<rect rx="8" ry="8" x="-24" y="-24" width="47" height="47" class="key"/>
<text x="0" y="0" class="key tap">}</text>
</g>
<g transform="translate(632, 138)" class="key keypos-35">
<rect rx="8" ry="8" x="-24" y="-24" width="47" height="47" class="key"/>
<text x="0" y="0" class="key tap">_</text>
</g>
<g transform="translate(28, 192)" class="key keypos-36">
<rect rx="8" ry="8" x="-24" y="-24" width="47" height="47" class="key"/>
</g>
<g transform="translate(82, 192)" class="key keypos-37">
<rect rx="8" ry="8" x="-24" y="-24" width="47" height="47" class="key"/>
</g>
<g transform="translate(138, 192)" class="key keypos-38">
<rect rx="8" ry="8" x="-24" y="-24" width="47" height="47" class="key"/>
</g>
<g transform="translate(192, 192)" class="key trans keypos-39">
<rect rx="8" ry="8" x="-24" y="-24" width="47" height="47" class="key trans"/>
<text x="0" y="0" class="key trans tap">▽</text>
</g>
<g transform="translate(248, 192)" class="key trans keypos-40">
<rect rx="8" ry="8" x="-24" y="-24" width="47" height="47" class="key trans"/>
<text x="0" y="0" class="key trans tap">▽</text>
</g>
<g transform="translate(302, 192)" class="key keypos-41">
<rect rx="8" ry="8" x="-24" y="-24" width="47" height="47" class="key"/>
</g>
<g transform="translate(358, 192)" class="key keypos-42">
<rect rx="8" ry="8" x="-24" y="-24" width="47" height="47" class="key"/>
</g>
<g transform="translate(412, 192)" class="key trans keypos-43">
<rect rx="8" ry="8" x="-24" y="-24" width="47" height="47" class="key trans"/>
<text x="0" y="0" class="key trans tap">▽</text>
</g>
<g transform="translate(468, 192)" class="key trans keypos-44">
<rect rx="8" ry="8" x="-24" y="-24" width="47" height="47" class="key trans"/>
<text x="0" y="0" class="key trans tap">▽</text>
</g>
<g transform="translate(522, 192)" class="key keypos-45">
<rect rx="8" ry="8" x="-24" y="-24" width="47" height="47" class="key"/>
</g>
<g transform="translate(578, 192)" class="key keypos-46">
<rect rx="8" ry="8" x="-24" y="-24" width="47" height="47" class="key"/>
</g>
<g transform="translate(632, 192)" class="key keypos-47">
<rect rx="8" ry="8" x="-24" y="-24" width="47" height="47" class="key"/>
</g>
</g>
</g>
<g transform="translate(30, 552)" class="layer-L2">
<text x="0" y="28" class="label">L2:</text>
<g transform="translate(0, 56)">
<g transform="translate(28, 28)" class="key keypos-0">
<rect rx="8" ry="8" x="-24" y="-24" width="47" height="47" class="key"/>
<text x="0" y="0" class="key tap">
<tspan x="0" dy="-0.6em">Alt+</tspan><tspan x="0" dy="1.2em">1</tspan>
</text>
</g>
<g transform="translate(82, 28)" class="key keypos-1">
<rect rx="8" ry="8" x="-24" y="-24" width="47" height="47" class="key"/>
<text x="0" y="0" class="key tap">
<tspan x="0" dy="-0.6em">Alt+</tspan><tspan x="0" dy="1.2em">2</tspan>
</text>
</g>
<g transform="translate(138, 28)" class="key keypos-2">
<rect rx="8" ry="8" x="-24" y="-24" width="47" height="47" class="key"/>
<text x="0" y="0" class="key tap">
<tspan x="0" dy="-0.6em">Alt+</tspan><tspan x="0" dy="1.2em">3</tspan>
</text>
</g>
<g transform="translate(192, 28)" class="key keypos-3">
<rect rx="8" ry="8" x="-24" y="-24" width="47" height="47" class="key"/>
<text x="0" y="0" class="key tap">
<tspan x="0" dy="-0.6em">Alt+</tspan><tspan x="0" dy="1.2em">4</tspan>
</text>
</g>
<g transform="translate(248, 28)" class="key keypos-4">
<rect rx="8" ry="8" x="-24" y="-24" width="47" height="47" class="key"/>
<text x="0" y="0" class="key tap">
<tspan x="0" dy="-0.6em">Alt+</tspan><tspan x="0" dy="1.2em">5</tspan>
</text>
</g>
<g transform="translate(302, 28)" class="key keypos-5">
<rect rx="8" ry="8" x="-24" y="-24" width="47" height="47" class="key"/>
</g>
<g transform="translate(358, 28)" class="key keypos-6">
<rect rx="8" ry="8" x="-24" y="-24" width="47" height="47" class="key"/>
</g>
<g transform="translate(412, 28)" class="key keypos-7">
<rect rx="8" ry="8" x="-24" y="-24" width="47" height="47" class="key"/>
<text x="0" y="0" class="key tap">MPRV</text>
</g>
<g transform="translate(468, 28)" class="key keypos-8">
<rect rx="8" ry="8" x="-24" y="-24" width="47" height="47" class="key"/>
<text x="0" y="0" class="key tap">VOLD</text>
</g>
<g transform="translate(522, 28)" class="key keypos-9">
<rect rx="8" ry="8" x="-24" y="-24" width="47" height="47" class="key"/>
<text x="0" y="0" class="key tap">VOLU</text>
</g>
<g transform="translate(578, 28)" class="key keypos-10">
<rect rx="8" ry="8" x="-24" y="-24" width="47" height="47" class="key"/>
<text x="0" y="0" class="key tap">MNXT</text>
</g>
<g transform="translate(632, 28)" class="key keypos-11">
<rect rx="8" ry="8" x="-24" y="-24" width="47" height="47" class="key"/>
<text x="0" y="0" class="key tap">MUTE</text>
</g>
<g transform="translate(28, 82)" class="key keypos-12">
<rect rx="8" ry="8" x="-24" y="-24" width="47" height="47" class="key"/>
<text x="0" y="0" class="key tap">ctrl</text>
</g>
<g transform="translate(82, 82)" class="key keypos-13">
<rect rx="8" ry="8" x="-24" y="-24" width="47" height="47" class="key"/>
<text x="0" y="0" class="key tap">alt</text>
</g>
<g transform="translate(138, 82)" class="key keypos-14">
<rect rx="8" ry="8" x="-24" y="-24" width="47" height="47" class="key"/>
<text x="0" y="0" class="key tap">gui</text>
</g>
<g transform="translate(192, 82)" class="key keypos-15">
<rect rx="8" ry="8" x="-24" y="-24" width="47" height="47" class="key"/>
<text x="0" y="0" class="key tap">shift</text>
</g>
<g transform="translate(248, 82)" class="key trans keypos-16">
<rect rx="8" ry="8" x="-24" y="-24" width="47" height="47" class="key trans"/>
<text x="0" y="0" class="key trans tap">▽</text>
</g>
<g transform="translate(302, 82)" class="key keypos-17">
<rect rx="8" ry="8" x="-24" y="-24" width="47" height="47" class="key"/>
</g>
<g transform="translate(358, 82)" class="key keypos-18">
<rect rx="8" ry="8" x="-24" y="-24" width="47" height="47" class="key"/>
</g>
<g transform="translate(412, 82)" class="key keypos-19">
<rect rx="8" ry="8" x="-24" y="-24" width="47" height="47" class="key"/>
<text x="0" y="0" class="key tap">LEFT</text>
</g>
<g transform="translate(468, 82)" class="key keypos-20">
<rect rx="8" ry="8" x="-24" y="-24" width="47" height="47" class="key"/>
<text x="0" y="0" class="key tap">DOWN</text>
</g>
<g transform="translate(522, 82)" class="key keypos-21">
<rect rx="8" ry="8" x="-24" y="-24" width="47" height="47" class="key"/>
<text x="0" y="0" class="key tap">UP</text>
</g>
<g transform="translate(578, 82)" class="key keypos-22">
<rect rx="8" ry="8" x="-24" y="-24" width="47" height="47" class="key"/>
<text x="0" y="0" class="key tap">RGHT</text>
</g>
<g transform="translate(632, 82)" class="key keypos-23">
<rect rx="8" ry="8" x="-24" y="-24" width="47" height="47" class="key"/>
<text x="0" y="0" class="key tap">MPLY</text>
</g>
<g transform="translate(28, 138)" class="key trans keypos-24">
<rect rx="8" ry="8" x="-24" y="-24" width="47" height="47" class="key trans"/>
<text x="0" y="0" class="key trans tap">▽</text>
</g>
<g transform="translate(82, 138)" class="key trans keypos-25">
<rect rx="8" ry="8" x="-24" y="-24" width="47" height="47" class="key trans"/>
<text x="0" y="0" class="key trans tap">▽</text>
</g>
<g transform="translate(138, 138)" class="key trans keypos-26">
<rect rx="8" ry="8" x="-24" y="-24" width="47" height="47" class="key trans"/>
<text x="0" y="0" class="key trans tap">▽</text>
</g>
<g transform="translate(192, 138)" class="key trans keypos-27">
<rect rx="8" ry="8" x="-24" y="-24" width="47" height="47" class="key trans"/>
<text x="0" y="0" class="key trans tap">▽</text>
</g>
<g transform="translate(248, 138)" class="key trans keypos-28">
<rect rx="8" ry="8" x="-24" y="-24" width="47" height="47" class="key trans"/>
<text x="0" y="0" class="key trans tap">▽</text>
</g>
<g transform="translate(302, 138)" class="key keypos-29">
<rect rx="8" ry="8" x="-24" y="-24" width="47" height="47" class="key"/>
</g>
<g transform="translate(358, 138)" class="key keypos-30">
<rect rx="8" ry="8" x="-24" y="-24" width="47" height="47" class="key"/>
</g>
<g transform="translate(412, 138)" class="key trans keypos-31">
<rect rx="8" ry="8" x="-24" y="-24" width="47" height="47" class="key trans"/>
<text x="0" y="0" class="key trans tap">▽</text>
</g>
<g transform="translate(468, 138)" class="key keypos-32">
<rect rx="8" ry="8" x="-24" y="-24" width="47" height="47" class="key"/>
<text x="0" y="0" class="key tap">BRID</text>
</g>
<g transform="translate(522, 138)" class="key keypos-33">
<rect rx="8" ry="8" x="-24" y="-24" width="47" height="47" class="key"/>
<text x="0" y="0" class="key tap">BRIU</text>
</g>
<g transform="translate(578, 138)" class="key trans keypos-34">
<rect rx="8" ry="8" x="-24" y="-24" width="47" height="47" class="key trans"/>
<text x="0" y="0" class="key trans tap">▽</text>
</g>
<g transform="translate(632, 138)" class="key keypos-35">
<rect rx="8" ry="8" x="-24" y="-24" width="47" height="47" class="key"/>
<text x="0" y="0" class="key tap">enter</text>
</g>
<g transform="translate(28, 192)" class="key keypos-36">
<rect rx="8" ry="8" x="-24" y="-24" width="47" height="47" class="key"/>
</g>
<g transform="translate(82, 192)" class="key keypos-37">
<rect rx="8" ry="8" x="-24" y="-24" width="47" height="47" class="key"/>
</g>
<g transform="translate(138, 192)" class="key keypos-38">
<rect rx="8" ry="8" x="-24" y="-24" width="47" height="47" class="key"/>
</g>
<g transform="translate(192, 192)" class="key trans keypos-39">
<rect rx="8" ry="8" x="-24" y="-24" width="47" height="47" class="key trans"/>
<text x="0" y="0" class="key trans tap">▽</text>
</g>
<g transform="translate(248, 192)" class="key trans keypos-40">
<rect rx="8" ry="8" x="-24" y="-24" width="47" height="47" class="key trans"/>
<text x="0" y="0" class="key trans tap">▽</text>
</g>
<g transform="translate(302, 192)" class="key keypos-41">
<rect rx="8" ry="8" x="-24" y="-24" width="47" height="47" class="key"/>
</g>
<g transform="translate(358, 192)" class="key keypos-42">
<rect rx="8" ry="8" x="-24" y="-24" width="47" height="47" class="key"/>
</g>
<g transform="translate(412, 192)" class="key trans keypos-43">
<rect rx="8" ry="8" x="-24" y="-24" width="47" height="47" class="key trans"/>
<text x="0" y="0" class="key trans tap">▽</text>
</g>
<g transform="translate(468, 192)" class="key trans keypos-44">
<rect rx="8" ry="8" x="-24" y="-24" width="47" height="47" class="key trans"/>
<text x="0" y="0" class="key trans tap">▽</text>
</g>
<g transform="translate(522, 192)" class="key keypos-45">
<rect rx="8" ry="8" x="-24" y="-24" width="47" height="47" class="key"/>
</g>
<g transform="translate(578, 192)" class="key keypos-46">
<rect rx="8" ry="8" x="-24" y="-24" width="47" height="47" class="key"/>
</g>
<g transform="translate(632, 192)" class="key keypos-47">
<rect rx="8" ry="8" x="-24" y="-24" width="47" height="47" class="key"/>
<text x="0" y="0" class="key tap">
<tspan x="0" dy="-0.6em">QK</tspan><tspan x="0" dy="1.2em">BOOT</tspan>
</text>
</g>
</g>
</g>
<g transform="translate(30, 828)" class="layer-L3">
<text x="0" y="28" class="label">L3:</text>
<g transform="translate(0, 56)">
<g transform="translate(28, 28)" class="key keypos-0">
<rect rx="8" ry="8" x="-24" y="-24" width="47" height="47" class="key"/>
<text x="0" y="0" class="key tap">[</text>
</g>
<g transform="translate(82, 28)" class="key keypos-1">
<rect rx="8" ry="8" x="-24" y="-24" width="47" height="47" class="key"/>
<text x="0" y="0" class="key tap">7</text>
</g>
<g transform="translate(138, 28)" class="key keypos-2">
<rect rx="8" ry="8" x="-24" y="-24" width="47" height="47" class="key"/>
<text x="0" y="0" class="key tap">8</text>
</g>
<g transform="translate(192, 28)" class="key keypos-3">
<rect rx="8" ry="8" x="-24" y="-24" width="47" height="47" class="key"/>
<text x="0" y="0" class="key tap">9</text>
</g>
<g transform="translate(248, 28)" class="key keypos-4">
<rect rx="8" ry="8" x="-24" y="-24" width="47" height="47" class="key"/>
<text x="0" y="0" class="key tap">]</text>
</g>
<g transform="translate(302, 28)" class="key keypos-5">
<rect rx="8" ry="8" x="-24" y="-24" width="47" height="47" class="key"/>
</g>
<g transform="translate(358, 28)" class="key keypos-6">
<rect rx="8" ry="8" x="-24" y="-24" width="47" height="47" class="key"/>
</g>
<g transform="translate(412, 28)" class="key trans keypos-7">
<rect rx="8" ry="8" x="-24" y="-24" width="47" height="47" class="key trans"/>
<text x="0" y="0" class="key trans tap">▽</text>
</g>
<g transform="translate(468, 28)" class="key trans keypos-8">
<rect rx="8" ry="8" x="-24" y="-24" width="47" height="47" class="key trans"/>
<text x="0" y="0" class="key trans tap">▽</text>
</g>
<g transform="translate(522, 28)" class="key trans keypos-9">
<rect rx="8" ry="8" x="-24" y="-24" width="47" height="47" class="key trans"/>
<text x="0" y="0" class="key trans tap">▽</text>
</g>
<g transform="translate(578, 28)" class="key trans keypos-10">
<rect rx="8" ry="8" x="-24" y="-24" width="47" height="47" class="key trans"/>
<text x="0" y="0" class="key trans tap">▽</text>
</g>
<g transform="translate(632, 28)" class="key trans keypos-11">
<rect rx="8" ry="8" x="-24" y="-24" width="47" height="47" class="key trans"/>
<text x="0" y="0" class="key trans tap">▽</text>
</g>
<g transform="translate(28, 82)" class="key keypos-12">
<rect rx="8" ry="8" x="-24" y="-24" width="47" height="47" class="key"/>
<text x="0" y="0" class="key tap">;</text>
</g>
<g transform="translate(82, 82)" class="key keypos-13">
<rect rx="8" ry="8" x="-24" y="-24" width="47" height="47" class="key"/>
<text x="0" y="0" class="key tap">4</text>
</g>
<g transform="translate(138, 82)" class="key keypos-14">
<rect rx="8" ry="8" x="-24" y="-24" width="47" height="47" class="key"/>
<text x="0" y="0" class="key tap">5</text>
</g>
<g transform="translate(192, 82)" class="key keypos-15">
<rect rx="8" ry="8" x="-24" y="-24" width="47" height="47" class="key"/>
<text x="0" y="0" class="key tap">6</text>
</g>
<g transform="translate(248, 82)" class="key keypos-16">
<rect rx="8" ry="8" x="-24" y="-24" width="47" height="47" class="key"/>
<text x="0" y="0" class="key tap">=</text>
</g>
<g transform="translate(302, 82)" class="key keypos-17">
<rect rx="8" ry="8" x="-24" y="-24" width="47" height="47" class="key"/>
</g>
<g transform="translate(358, 82)" class="key keypos-18">
<rect rx="8" ry="8" x="-24" y="-24" width="47" height="47" class="key"/>
</g>
<g transform="translate(412, 82)" class="key trans keypos-19">
<rect rx="8" ry="8" x="-24" y="-24" width="47" height="47" class="key trans"/>
<text x="0" y="0" class="key trans tap">▽</text>
</g>
<g transform="translate(468, 82)" class="key keypos-20">
<rect rx="8" ry="8" x="-24" y="-24" width="47" height="47" class="key"/>
<text x="0" y="0" class="key tap">shift</text>
</g>
<g transform="translate(522, 82)" class="key keypos-21">
<rect rx="8" ry="8" x="-24" y="-24" width="47" height="47" class="key"/>
<text x="0" y="0" class="key tap">gui</text>
</g>
<g transform="translate(578, 82)" class="key keypos-22">
<rect rx="8" ry="8" x="-24" y="-24" width="47" height="47" class="key"/>
<text x="0" y="0" class="key tap">alt</text>
</g>
<g transform="translate(632, 82)" class="key keypos-23">
<rect rx="8" ry="8" x="-24" y="-24" width="47" height="47" class="key"/>
<text x="0" y="0" class="key tap">ctrl</text>
</g>
<g transform="translate(28, 138)" class="key keypos-24">
<rect rx="8" ry="8" x="-24" y="-24" width="47" height="47" class="key"/>
<text x="0" y="0" class="key tap">\</text>
</g>
<g transform="translate(82, 138)" class="key keypos-25">
<rect rx="8" ry="8" x="-24" y="-24" width="47" height="47" class="key"/>
<text x="0" y="0" class="key tap">1</text>
</g>
<g transform="translate(138, 138)" class="key keypos-26">
<rect rx="8" ry="8" x="-24" y="-24" width="47" height="47" class="key"/>
<text x="0" y="0" class="key tap">2</text>
</g>
<g transform="translate(192, 138)" class="key keypos-27">
<rect rx="8" ry="8" x="-24" y="-24" width="47" height="47" class="key"/>
<text x="0" y="0" class="key tap">3</text>
</g>
<g transform="translate(248, 138)" class="key keypos-28">
<rect rx="8" ry="8" x="-24" y="-24" width="47" height="47" class="key"/>
<text x="0" y="0" class="key tap">-</text>
</g>
<g transform="translate(302, 138)" class="key keypos-29">
<rect rx="8" ry="8" x="-24" y="-24" width="47" height="47" class="key"/>
</g>
<g transform="translate(358, 138)" class="key keypos-30">
<rect rx="8" ry="8" x="-24" y="-24" width="47" height="47" class="key"/>
</g>
<g transform="translate(412, 138)" class="key trans keypos-31">
<rect rx="8" ry="8" x="-24" y="-24" width="47" height="47" class="key trans"/>
<text x="0" y="0" class="key trans tap">▽</text>
</g>
<g transform="translate(468, 138)" class="key trans keypos-32">
<rect rx="8" ry="8" x="-24" y="-24" width="47" height="47" class="key trans"/>
<text x="0" y="0" class="key trans tap">▽</text>
</g>
<g transform="translate(522, 138)" class="key trans keypos-33">
<rect rx="8" ry="8" x="-24" y="-24" width="47" height="47" class="key trans"/>
<text x="0" y="0" class="key trans tap">▽</text>
</g>
<g transform="translate(578, 138)" class="key trans keypos-34">
<rect rx="8" ry="8" x="-24" y="-24" width="47" height="47" class="key trans"/>
<text x="0" y="0" class="key trans tap">▽</text>
</g>
<g transform="translate(632, 138)" class="key trans keypos-35">
<rect rx="8" ry="8" x="-24" y="-24" width="47" height="47" class="key trans"/>
<text x="0" y="0" class="key trans tap">▽</text>
</g>
<g transform="translate(28, 192)" class="key keypos-36">
<rect rx="8" ry="8" x="-24" y="-24" width="47" height="47" class="key"/>
</g>
<g transform="translate(82, 192)" class="key keypos-37">
<rect rx="8" ry="8" x="-24" y="-24" width="47" height="47" class="key"/>
</g>
<g transform="translate(138, 192)" class="key keypos-38">
<rect rx="8" ry="8" x="-24" y="-24" width="47" height="47" class="key"/>
</g>
<g transform="translate(192, 192)" class="key keypos-39">
<rect rx="8" ry="8" x="-24" y="-24" width="47" height="47" class="key"/>
<text x="0" y="0" class="key tap">.</text>
</g>
<g transform="translate(248, 192)" class="key keypos-40">
<rect rx="8" ry="8" x="-24" y="-24" width="47" height="47" class="key"/>
<text x="0" y="0" class="key tap">0</text>
</g>
<g transform="translate(302, 192)" class="key keypos-41">
<rect rx="8" ry="8" x="-24" y="-24" width="47" height="47" class="key"/>
</g>
<g transform="translate(358, 192)" class="key keypos-42">
<rect rx="8" ry="8" x="-24" y="-24" width="47" height="47" class="key"/>
</g>
<g transform="translate(412, 192)" class="key trans keypos-43">
<rect rx="8" ry="8" x="-24" y="-24" width="47" height="47" class="key trans"/>
<text x="0" y="0" class="key trans tap">▽</text>
</g>
<g transform="translate(468, 192)" class="key trans keypos-44">
<rect rx="8" ry="8" x="-24" y="-24" width="47" height="47" class="key trans"/>
<text x="0" y="0" class="key trans tap">▽</text>
</g>
<g transform="translate(522, 192)" class="key keypos-45">
<rect rx="8" ry="8" x="-24" y="-24" width="47" height="47" class="key"/>
</g>
<g transform="translate(578, 192)" class="key keypos-46">
<rect rx="8" ry="8" x="-24" y="-24" width="47" height="47" class="key"/>
</g>
<g transform="translate(632, 192)" class="key keypos-47">
<rect rx="8" ry="8" x="-24" y="-24" width="47" height="47" class="key"/>
</g>
</g>
</g>
</svg>
