<svg width="1020" height="1560" viewBox="0 0 1020 1560" class="keymap" xmlns="http://www.w3.org/2000/svg" xmlns:xlink="http://www.w3.org/1999/xlink">
<defs>/* start glyphs */
<svg id="mdi:apple-keyboard-command">
<svg xmlns="http://www.w3.org/2000/svg" id="mdi-apple-keyboard-command" viewBox="0 0 24 24"><path d="M6,2A4,4 0 0,1 10,6V8H14V6A4,4 0 0,1 18,2A4,4 0 0,1 22,6A4,4 0 0,1 18,10H16V14H18A4,4 0 0,1 22,18A4,4 0 0,1 18,22A4,4 0 0,1 14,18V16H10V18A4,4 0 0,1 6,22A4,4 0 0,1 2,18A4,4 0 0,1 6,14H8V10H6A4,4 0 0,1 2,6A4,4 0 0,1 6,2M16,18A2,2 0 0,0 18,20A2,2 0 0,0 20,18A2,2 0 0,0 18,16H16V18M14,10H10V14H14V10M6,16A2,2 0 0,0 4,18A2,2 0 0,0 6,20A2,2 0 0,0 8,18V16H6M8,6A2,2 0 0,0 6,4A2,2 0 0,0 4,6A2,2 0 0,0 6,8H8V6M18,8A2,2 0 0,0 20,6A2,2 0 0,0 18,4A2,2 0 0,0 16,6V8H18Z" /></svg>
</svg>
<svg id="mdi:apple-keyboard-control">
<svg xmlns="http://www.w3.org/2000/svg" id="mdi-apple-keyboard-control" viewBox="0 0 24 24"><path d="M19.78,11.78L18.36,13.19L12,6.83L5.64,13.19L4.22,11.78L12,4L19.78,11.78Z" /></svg>
</svg>
<svg id="mdi:apple-keyboard-option">
<svg xmlns="http://www.w3.org/2000/svg" id="mdi-apple-keyboard-option" viewBox="0 0 24 24"><path d="M3,4H9.11L16.15,18H21V20H14.88L7.84,6H3V4M14,4H21V6H14V4Z" /></svg>
</svg>
<svg id="mdi:apple-keyboard-shift">
<svg xmlns="http://www.w3.org/2000/svg" id="mdi-apple-keyboard-shift" viewBox="0 0 24 24"><path d="M15,18V12H17.17L12,6.83L6.83,12H9V18H15M12,4L22,14H17V20H7V14H2L12,4Z" /></svg>
</svg>
<svg id="mdi:arrow-down-bold">
<svg xmlns="http://www.w3.org/2000/svg" id="mdi-arrow-down-bold" viewBox="0 0 24 24"><path d="M9,4H15V12H19.84L12,19.84L4.16,12H9V4Z" /></svg>
</svg>
<svg id="mdi:arrow-left-bold">
<svg xmlns="http://www.w3.org/2000/svg" id="mdi-arrow-left-bold" viewBox="0 0 24 24"><path d="M20,9V15H12V19.84L4.16,12L12,4.16V9H20Z" /></svg>
</svg>
<svg id="mdi:arrow-right-bold">
<svg xmlns="http://www.w3.org/2000/svg" id="mdi-arrow-right-bold" viewBox="0 0 24 24"><path d="M4,15V9H12V4.16L19.84,12L12,19.84V15H4Z" /></svg>
</svg>
<svg id="mdi:arrow-up-bold">
<svg xmlns="http://www.w3.org/2000/svg" id="mdi-arrow-up-bold" viewBox="0 0 24 24"><path d="M15,20H9V12H4.16L12,4.16L19.84,12H15V20Z" /></svg>
</svg>
<svg id="mdi:backspace">
<svg xmlns="http://www.w3.org/2000/svg" id="mdi-backspace" viewBox="0 0 24 24"><path d="M22,3H7C6.31,3 5.77,3.35 5.41,3.88L0,12L5.41,20.11C5.77,20.64 6.31,21 7,21H22A2,2 0 0,0 24,19V5A2,2 0 0,0 22,3M19,15.59L17.59,17L14,13.41L10.41,17L9,15.59L12.59,12L9,8.41L10.41,7L14,10.59L17.59,7L19,8.41L15.41,12" /></svg>
</svg>
<svg id="mdi:backspace-reverse-outline">
<svg xmlns="http://www.w3.org/2000/svg" id="mdi-backspace-reverse-outline" viewBox="0 0 24 24"><path d="M5,15.59L6.41,17L10,13.41L13.59,17L15,15.59L11.41,12L15,8.41L13.59,7L10,10.59L6.41,7L5,8.41L8.59,12L5,15.59M2,3A2,2 0 0,0 0,5V19A2,2 0 0,0 2,21H17C17.69,21 18.23,20.64 18.59,20.11L24,12L18.59,3.88C18.23,3.35 17.69,3 17,3H2M2,5H17L21.72,12L17,19H2V5Z" /></svg>
</svg>
</defs>/* end glyphs */
<style>/* inherit to force styles through use tags */
svg path {
    fill: inherit;
}

/* font and background color specifications */
svg.keymap {
    font-family: SFMono-Regular,Consolas,Liberation Mono,Menlo,monospace;
    font-size: 14px;
    font-kerning: normal;
    text-rendering: optimizeLegibility;
    fill: #24292e;
}

/* default key styling */
rect.key {
    fill: #f6f8fa;
}

rect.key, rect.combo {
    stroke: #c9cccf;
    stroke-width: 1;
}

/* default key side styling, only used is draw_key_sides is set */
rect.side {
    filter: brightness(90%);
}

/* color accent for combo boxes */
rect.combo, rect.combo-separate {
    fill: #cdf;
}

/* color accent for held keys */
rect.held, rect.combo.held {
    fill: #fdd;
}

/* color accent for ghost (optional) keys */
rect.ghost, rect.combo.ghost {
    stroke-dasharray: 4, 4;
    stroke-width: 2;
}

text {
    text-anchor: middle;
    dominant-baseline: middle;
}

/* styling for layer labels */
text.label {
    font-weight: bold;
    text-anchor: start;
    stroke: white;
    stroke-width: 4;
    paint-order: stroke;
}

/* styling for optional footer */
text.footer {
    text-anchor: end;
    dominant-baseline: auto;
    stroke: white;
    stroke-width: 4;
    paint-order: stroke;
}

/* styling for combo tap, and key hold/shifted label text */
text.combo, text.hold, text.shifted {
    font-size: 11px;
}

text.hold {
    text-anchor: middle;
    dominant-baseline: auto;
}

text.shifted {
    text-anchor: middle;
    dominant-baseline: hanging;
}

/* styling for hold/shifted label text in combo box */
text.combo.hold, text.combo.shifted {
    font-size: 8px;
}

/* lighter symbol for transparent keys */
text.trans {
    fill: #7b7e81;
}

/* styling for combo dendrons */
path.combo {
    stroke-width: 1;
    stroke: gray;
    fill: none;
}

/* Start Tabler Icons Cleanup */
/* cannot use height/width with glyphs */
.icon-tabler > path {
    fill: inherit;
    stroke: inherit;
    stroke-width: 2;
}
/* hide tabler's default box */
.icon-tabler > path[stroke="none"][fill="none"] {
    visibility: hidden;
}
/* End Tabler Icons Cleanup */
</style>
<g transform="translate(30, 0)" class="layer-L0">
<text x="0" y="28" class="label">L0:</text>
<g transform="translate(0, 56)">
<g transform="translate(40, 40)" class="key keypos-0">
<rect rx="4" ry="4" x="-38" y="-38" width="76" height="76" class="key"/>
<text x="0" y="0" class="key tap">Q</text>
</g>
<g transform="translate(120, 40)" class="key keypos-1">
<rect rx="4" ry="4" x="-38" y="-38" width="76" height="76" class="key"/>
<text x="0" y="0" class="key tap">W</text>
</g>
<g transform="translate(200, 40)" class="key keypos-2">
<rect rx="4" ry="4" x="-38" y="-38" width="76" height="76" class="key"/>
<text x="0" y="0" class="key tap">E</text>
</g>
<g transform="translate(280, 40)" class="key keypos-3">
<rect rx="4" ry="4" x="-38" y="-38" width="76" height="76" class="key"/>
<text x="0" y="0" class="key tap">R</text>
</g>
<g transform="translate(360, 40)" class="key keypos-4">
<rect rx="4" ry="4" x="-38" y="-38" width="76" height="76" class="key"/>
<text x="0" y="0" class="key tap">T</text>
</g>
<g transform="translate(440, 40)" class="key keypos-5">
<rect rx="4" ry="4" x="-38" y="-38" width="76" height="76" class="key"/>
</g>
<g transform="translate(520, 40)" class="key keypos-6">
<rect rx="4" ry="4" x="-38" y="-38" width="76" height="76" class="key"/>
</g>
<g transform="translate(600, 40)" class="key keypos-7">
<rect rx="4" ry="4" x="-38" y="-38" width="76" height="76" class="key"/>
<text x="0" y="0" class="key tap">Y</text>
</g>
<g transform="translate(680, 40)" class="key keypos-8">
<rect rx="4" ry="4" x="-38" y="-38" width="76" height="76" class="key"/>
<text x="0" y="0" class="key tap">U</text>
</g>
<g transform="translate(760, 40)" class="key keypos-9">
<rect rx="4" ry="4" x="-38" y="-38" width="76" height="76" class="key"/>
<text x="0" y="0" class="key tap">I</text>
</g>
<g transform="translate(840, 40)" class="key keypos-10">
<rect rx="4" ry="4" x="-38" y="-38" width="76" height="76" class="key"/>
<text x="0" y="0" class="key tap">O</text>
</g>
<g transform="translate(920, 40)" class="key keypos-11">
<rect rx="4" ry="4" x="-38" y="-38" width="76" height="76" class="key"/>
<text x="0" y="0" class="key tap">P</text>
</g>
<g transform="translate(40, 120)" class="key keypos-12">
<rect rx="4" ry="4" x="-38" y="-38" width="76" height="76" class="key"/>
<text x="0" y="0" class="key tap">
<tspan x="0" dy="-0.6em">HOME</tspan><tspan x="0" dy="1.2em">A</tspan>
</text>
</g>
<g transform="translate(120, 120)" class="key keypos-13">
<rect rx="4" ry="4" x="-38" y="-38" width="76" height="76" class="key"/>
<text x="0" y="0" class="key tap">
<tspan x="0" dy="-0.6em">HOME</tspan><tspan x="0" dy="1.2em">S</tspan>
</text>
</g>
<g transform="translate(200, 120)" class="key keypos-14">
<rect rx="4" ry="4" x="-38" y="-38" width="76" height="76" class="key"/>
<text x="0" y="0" class="key tap">
<tspan x="0" dy="-0.6em">HOME</tspan><tspan x="0" dy="1.2em">D</tspan>
</text>
</g>
<g transform="translate(280, 120)" class="key keypos-15">
<rect rx="4" ry="4" x="-38" y="-38" width="76" height="76" class="key"/>
<text x="0" y="0" class="key tap">
<tspan x="0" dy="-0.6em">HOME</tspan><tspan x="0" dy="1.2em">F</tspan>
</text>
</g>
<g transform="translate(360, 120)" class="key keypos-16">
<rect rx="4" ry="4" x="-38" y="-38" width="76" height="76" class="key"/>
<text x="0" y="0" class="key tap">G</text>
</g>
<g transform="translate(440, 120)" class="key keypos-17">
<rect rx="4" ry="4" x="-38" y="-38" width="76" height="76" class="key"/>
</g>
<g transform="translate(520, 120)" class="key keypos-18">
<rect rx="4" ry="4" x="-38" y="-38" width="76" height="76" class="key"/>
</g>
<g transform="translate(600, 120)" class="key keypos-19">
<rect rx="4" ry="4" x="-38" y="-38" width="76" height="76" class="key"/>
<text x="0" y="0" class="key tap">H</text>
</g>
<g transform="translate(680, 120)" class="key keypos-20">
<rect rx="4" ry="4" x="-38" y="-38" width="76" height="76" class="key"/>
<text x="0" y="0" class="key tap">
<tspan x="0" dy="-0.6em">HOME</tspan><tspan x="0" dy="1.2em">J</tspan>
</text>
</g>
<g transform="translate(760, 120)" class="key keypos-21">
<rect rx="4" ry="4" x="-38" y="-38" width="76" height="76" class="key"/>
<text x="0" y="0" class="key tap">
<tspan x="0" dy="-0.6em">HOME</tspan><tspan x="0" dy="1.2em">K</tspan>
</text>
</g>
<g transform="translate(840, 120)" class="key keypos-22">
<rect rx="4" ry="4" x="-38" y="-38" width="76" height="76" class="key"/>
<text x="0" y="0" class="key tap">
<tspan x="0" dy="-0.6em">HOME</tspan><tspan x="0" dy="1.2em">L</tspan>
</text>
</g>
<g transform="translate(920, 120)" class="key keypos-23">
<rect rx="4" ry="4" x="-38" y="-38" width="76" height="76" class="key"/>
<text x="0" y="0" class="key tap">
<tspan x="0" dy="-0.6em">HOME</tspan><tspan x="0" dy="1.2em">SCLN</tspan>
</text>
</g>
<g transform="translate(40, 200)" class="key keypos-24">
<rect rx="4" ry="4" x="-38" y="-38" width="76" height="76" class="key"/>
<text x="0" y="0" class="key tap">Z</text>
</g>
<g transform="translate(120, 200)" class="key keypos-25">
<rect rx="4" ry="4" x="-38" y="-38" width="76" height="76" class="key"/>
<text x="0" y="0" class="key tap">X</text>
</g>
<g transform="translate(200, 200)" class="key keypos-26">
<rect rx="4" ry="4" x="-38" y="-38" width="76" height="76" class="key"/>
<text x="0" y="0" class="key tap">C</text>
</g>
<g transform="translate(280, 200)" class="key keypos-27">
<rect rx="4" ry="4" x="-38" y="-38" width="76" height="76" class="key"/>
<text x="0" y="0" class="key tap">V</text>
</g>
<g transform="translate(360, 200)" class="key keypos-28">
<rect rx="4" ry="4" x="-38" y="-38" width="76" height="76" class="key"/>
<text x="0" y="0" class="key tap">B</text>
</g>
<g transform="translate(440, 200)" class="key keypos-29">
<rect rx="4" ry="4" x="-38" y="-38" width="76" height="76" class="key"/>
</g>
<g transform="translate(520, 200)" class="key keypos-30">
<rect rx="4" ry="4" x="-38" y="-38" width="76" height="76" class="key"/>
</g>
<g transform="translate(600, 200)" class="key keypos-31">
<rect rx="4" ry="4" x="-38" y="-38" width="76" height="76" class="key"/>
<text x="0" y="0" class="key tap">N</text>
</g>
<g transform="translate(680, 200)" class="key keypos-32">
<rect rx="4" ry="4" x="-38" y="-38" width="76" height="76" class="key"/>
<text x="0" y="0" class="key tap">M</text>
</g>
<g transform="translate(760, 200)" class="key keypos-33">
<rect rx="4" ry="4" x="-38" y="-38" width="76" height="76" class="key"/>
<text x="0" y="0" class="key tap">,</text>
<text x="0" y="-34" class="key shifted">&lt;</text>
</g>
<g transform="translate(840, 200)" class="key keypos-34">
<rect rx="4" ry="4" x="-38" y="-38" width="76" height="76" class="key"/>
<text x="0" y="0" class="key tap">.</text>
<text x="0" y="-34" class="key shifted">&gt;</text>
</g>
<g transform="translate(920, 200)" class="key keypos-35">
<rect rx="4" ry="4" x="-38" y="-38" width="76" height="76" class="key"/>
<text x="0" y="0" class="key tap">/</text>
<text x="0" y="-34" class="key shifted">?</text>
</g>
<g transform="translate(40, 280)" class="key keypos-36">
<rect rx="4" ry="4" x="-38" y="-38" width="76" height="76" class="key"/>
</g>
<g transform="translate(120, 280)" class="key keypos-37">
<rect rx="4" ry="4" x="-38" y="-38" width="76" height="76" class="key"/>
</g>
<g transform="translate(200, 280)" class="key keypos-38">
<rect rx="4" ry="4" x="-38" y="-38" width="76" height="76" class="key"/>
</g>
<g transform="translate(280, 280)" class="key keypos-39">
<rect rx="4" ry="4" x="-38" y="-38" width="76" height="76" class="key"/>
<text x="0" y="0" class="key tap">
<tspan x="0" dy="-1.2em">LT(LA</tspan><tspan x="0" dy="1.2em">NAV,</tspan>
<tspan x="0" dy="1.2em">BSPC)</tspan>
</text>
</g>
<g transform="translate(360, 280)" class="key keypos-40">
<rect rx="4" ry="4" x="-38" y="-38" width="76" height="76" class="key"/>
<text x="0" y="0" class="key tap">
<tspan x="0" dy="-1.2em">LT(LA</tspan><tspan x="0" dy="1.2em">SYM,</tspan>
<tspan x="0" dy="1.2em">ESC)</tspan>
</text>
</g>
<g transform="translate(440, 280)" class="key keypos-41">
<rect rx="4" ry="4" x="-38" y="-38" width="76" height="76" class="key"/>
</g>
<g transform="translate(520, 280)" class="key keypos-42">
<rect rx="4" ry="4" x="-38" y="-38" width="76" height="76" class="key"/>
</g>
<g transform="translate(600, 280)" class="key keypos-43">
<rect rx="4" ry="4" x="-38" y="-38" width="76" height="76" class="key"/>
<text x="0" y="0" class="key tap">
<tspan x="0" dy="-1.2em">LT(LA</tspan><tspan x="0" dy="1.2em">NUM,</tspan>
<tspan x="0" dy="1.2em">ENT)</tspan>
</text>
</g>
<g transform="translate(680, 280)" class="key keypos-44">
<rect rx="4" ry="4" x="-38" y="-38" width="76" height="76" class="key"/>
<text x="0" y="0" class="key tap">
<tspan x="0" dy="-1.2em">LT(LA</tspan><tspan x="0" dy="1.2em">SYM,</tspan>
<tspan x="0" dy="1.2em">SPC)</tspan>
</text>
</g>
<g transform="translate(760, 280)" class="key keypos-45">
<rect rx="4" ry="4" x="-38" y="-38" width="76" height="76" class="key"/>
</g>
<g transform="translate(840, 280)" class="key keypos-46">
<rect rx="4" ry="4" x="-38" y="-38" width="76" height="76" class="key"/>
</g>
<g transform="translate(920, 280)" class="key keypos-47">
<rect rx="4" ry="4" x="-38" y="-38" width="76" height="76" class="key"/>
</g>
</g>
</g>
<g transform="translate(30, 376)" class="layer-L1">
<text x="0" y="28" class="label">L1:</text>
<g transform="translate(0, 56)">
<g transform="translate(40, 40)" class="key keypos-0">
<rect rx="4" ry="4" x="-38" y="-38" width="76" height="76" class="key"/>
<text x="0" y="0" class="key tap">!</text>
</g>
<g transform="translate(120, 40)" class="key keypos-1">
<rect rx="4" ry="4" x="-38" y="-38" width="76" height="76" class="key"/>
<text x="0" y="0" class="key tap">@</text>
</g>
<g transform="translate(200, 40)" class="key keypos-2">
<rect rx="4" ry="4" x="-38" y="-38" width="76" height="76" class="key"/>
<text x="0" y="0" class="key tap">#</text>
</g>
<g transform="translate(280, 40)" class="key keypos-3">
<rect rx="4" ry="4" x="-38" y="-38" width="76" height="76" class="key"/>
<text x="0" y="0" class="key tap">$</text>
</g>
<g transform="translate(360, 40)" class="key keypos-4">
<rect rx="4" ry="4" x="-38" y="-38" width="76" height="76" class="key"/>
<text x="0" y="0" class="key tap">%</text>
</g>
<g transform="translate(440, 40)" class="key keypos-5">
<rect rx="4" ry="4" x="-38" y="-38" width="76" height="76" class="key"/>
</g>
<g transform="translate(520, 40)" class="key keypos-6">
<rect rx="4" ry="4" x="-38" y="-38" width="76" height="76" class="key"/>
</g>
<g transform="translate(600, 40)" class="key keypos-7">
<rect rx="4" ry="4" x="-38" y="-38" width="76" height="76" class="key"/>
<text x="0" y="0" class="key tap">=</text>
<text x="0" y="-34" class="key shifted">+</text>
</g>
<g transform="translate(680, 40)" class="key keypos-8">
<rect rx="4" ry="4" x="-38" y="-38" width="76" height="76" class="key"/>
<text x="0" y="0" class="key tap">`</text>
</g>
<g transform="translate(760, 40)" class="key keypos-9">
<rect rx="4" ry="4" x="-38" y="-38" width="76" height="76" class="key"/>
<text x="0" y="0" class="key tap">(</text>
</g>
<g transform="translate(840, 40)" class="key keypos-10">
<rect rx="4" ry="4" x="-38" y="-38" width="76" height="76" class="key"/>
<text x="0" y="0" class="key tap">)</text>
</g>
<g transform="translate(920, 40)" class="key keypos-11">
<rect rx="4" ry="4" x="-38" y="-38" width="76" height="76" class="key"/>
<text x="0" y="0" class="key tap">+</text>
</g>
<g transform="translate(40, 120)" class="key keypos-12">
<rect rx="4" ry="4" x="-38" y="-38" width="76" height="76" class="key"/>
<use href="#mdi:apple-keyboard-control" xlink:href="#mdi:apple-keyboard-control" x="-13" y="-13" height="26" width="26.0" class="key tap glyph mdi:apple-keyboard-control"/>
</g>
<g transform="translate(120, 120)" class="key keypos-13">
<rect rx="4" ry="4" x="-38" y="-38" width="76" height="76" class="key"/>
<use href="#mdi:apple-keyboard-option" xlink:href="#mdi:apple-keyboard-option" x="-13" y="-13" height="26" width="26.0" class="key tap glyph mdi:apple-keyboard-option"/>
</g>
<g transform="translate(200, 120)" class="key keypos-14">
<rect rx="4" ry="4" x="-38" y="-38" width="76" height="76" class="key"/>
<use href="#mdi:apple-keyboard-command" xlink:href="#mdi:apple-keyboard-command" x="-13" y="-13" height="26" width="26.0" class="key tap glyph mdi:apple-keyboard-command"/>
</g>
<g transform="translate(280, 120)" class="key keypos-15">
<rect rx="4" ry="4" x="-38" y="-38" width="76" height="76" class="key"/>
<use href="#mdi:apple-keyboard-shift" xlink:href="#mdi:apple-keyboard-shift" x="-13" y="-13" height="26" width="26.0" class="key tap glyph mdi:apple-keyboard-shift"/>
</g>
<g transform="translate(360, 120)" class="key keypos-16">
<rect rx="4" ry="4" x="-38" y="-38" width="76" height="76" class="key"/>
<text x="0" y="0" class="key tap">^</text>
</g>
<g transform="translate(440, 120)" class="key keypos-17">
<rect rx="4" ry="4" x="-38" y="-38" width="76" height="76" class="key"/>
</g>
<g transform="translate(520, 120)" class="key keypos-18">
<rect rx="4" ry="4" x="-38" y="-38" width="76" height="76" class="key"/>
</g>
<g transform="translate(600, 120)" class="key keypos-19">
<rect rx="4" ry="4" x="-38" y="-38" width="76" height="76" class="key"/>
<text x="0" y="0" class="key tap">*</text>
</g>
<g transform="translate(680, 120)" class="key keypos-20">
<rect rx="4" ry="4" x="-38" y="-38" width="76" height="76" class="key"/>
<text x="0" y="0" class="key tap">:</text>
</g>
<g transform="translate(760, 120)" class="key keypos-21">
<rect rx="4" ry="4" x="-38" y="-38" width="76" height="76" class="key"/>
<text x="0" y="0" class="key tap">[</text>
<text x="0" y="-34" class="key shifted">{</text>
</g>
<g transform="translate(840, 120)" class="key keypos-22">
<rect rx="4" ry="4" x="-38" y="-38" width="76" height="76" class="key"/>
<text x="0" y="0" class="key tap">]</text>
<text x="0" y="-34" class="key shifted">}</text>
</g>
<g transform="translate(920, 120)" class="key keypos-23">
<rect rx="4" ry="4" x="-38" y="-38" width="76" height="76" class="key"/>
<text x="0" y="0" class="key tap">-</text>
</g>
<g transform="translate(40, 200)" class="key trans keypos-24">
<rect rx="4" ry="4" x="-38" y="-38" width="76" height="76" class="key trans"/>
<text x="0" y="0" class="key trans tap">▽</text>
</g>
<g transform="translate(120, 200)" class="key trans keypos-25">
<rect rx="4" ry="4" x="-38" y="-38" width="76" height="76" class="key trans"/>
<text x="0" y="0" class="key trans tap">▽</text>
</g>
<g transform="translate(200, 200)" class="key keypos-26">
<rect rx="4" ry="4" x="-38" y="-38" width="76" height="76" class="key"/>
<text x="0" y="0" class="key tap">\</text>
</g>
<g transform="translate(280, 200)" class="key keypos-27">
<rect rx="4" ry="4" x="-38" y="-38" width="76" height="76" class="key"/>
<text x="0" y="0" class="key tap">|</text>
</g>
<g transform="translate(360, 200)" class="key keypos-28">
<rect rx="4" ry="4" x="-38" y="-38" width="76" height="76" class="key"/>
<text x="0" y="0" class="key tap">&amp;</text>
</g>
<g transform="translate(440, 200)" class="key keypos-29">
<rect rx="4" ry="4" x="-38" y="-38" width="76" height="76" class="key"/>
</g>
<g transform="translate(520, 200)" class="key keypos-30">
<rect rx="4" ry="4" x="-38" y="-38" width="76" height="76" class="key"/>
</g>
<g transform="translate(600, 200)" class="key keypos-31">
<rect rx="4" ry="4" x="-38" y="-38" width="76" height="76" class="key"/>
<text x="0" y="0" class="key tap">~</text>
</g>
<g transform="translate(680, 200)" class="key keypos-32">
<rect rx="4" ry="4" x="-38" y="-38" width="76" height="76" class="key"/>
<text x="0" y="0" class="key tap">;</text>
<text x="0" y="-34" class="key shifted">:</text>
</g>
<g transform="translate(760, 200)" class="key keypos-33">
<rect rx="4" ry="4" x="-38" y="-38" width="76" height="76" class="key"/>
<text x="0" y="0" class="key tap">{</text>
</g>
<g transform="translate(840, 200)" class="key keypos-34">
<rect rx="4" ry="4" x="-38" y="-38" width="76" height="76" class="key"/>
<text x="0" y="0" class="key tap">}</text>
</g>
<g transform="translate(920, 200)" class="key keypos-35">
<rect rx="4" ry="4" x="-38" y="-38" width="76" height="76" class="key"/>
<text x="0" y="0" class="key tap">_</text>
</g>
<g transform="translate(40, 280)" class="key keypos-36">
<rect rx="4" ry="4" x="-38" y="-38" width="76" height="76" class="key"/>
</g>
<g transform="translate(120, 280)" class="key keypos-37">
<rect rx="4" ry="4" x="-38" y="-38" width="76" height="76" class="key"/>
</g>
<g transform="translate(200, 280)" class="key keypos-38">
<rect rx="4" ry="4" x="-38" y="-38" width="76" height="76" class="key"/>
</g>
<g transform="translate(280, 280)" class="key trans keypos-39">
<rect rx="4" ry="4" x="-38" y="-38" width="76" height="76" class="key trans"/>
<text x="0" y="0" class="key trans tap">▽</text>
</g>
<g transform="translate(360, 280)" class="key trans keypos-40">
<rect rx="4" ry="4" x="-38" y="-38" width="76" height="76" class="key trans"/>
<text x="0" y="0" class="key trans tap">▽</text>
</g>
<g transform="translate(440, 280)" class="key keypos-41">
<rect rx="4" ry="4" x="-38" y="-38" width="76" height="76" class="key"/>
</g>
<g transform="translate(520, 280)" class="key keypos-42">
<rect rx="4" ry="4" x="-38" y="-38" width="76" height="76" class="key"/>
</g>
<g transform="translate(600, 280)" class="key trans keypos-43">
<rect rx="4" ry="4" x="-38" y="-38" width="76" height="76" class="key trans"/>
<text x="0" y="0" class="key trans tap">▽</text>
</g>
<g transform="translate(680, 280)" class="key trans keypos-44">
<rect rx="4" ry="4" x="-38" y="-38" width="76" height="76" class="key trans"/>
<text x="0" y="0" class="key trans tap">▽</text>
</g>
<g transform="translate(760, 280)" class="key keypos-45">
<rect rx="4" ry="4" x="-38" y="-38" width="76" height="76" class="key"/>
</g>
<g transform="translate(840, 280)" class="key keypos-46">
<rect rx="4" ry="4" x="-38" y="-38" width="76" height="76" class="key"/>
</g>
<g transform="translate(920, 280)" class="key keypos-47">
<rect rx="4" ry="4" x="-38" y="-38" width="76" height="76" class="key"/>
</g>
</g>
</g>
<g transform="translate(30, 752)" class="layer-L2">
<text x="0" y="28" class="label">L2:</text>
<g transform="translate(0, 56)">
<g transform="translate(40, 40)" class="key keypos-0">
<rect rx="4" ry="4" x="-38" y="-38" width="76" height="76" class="key"/>
<text x="0" y="0" class="key tap">
<tspan x="0" dy="-0.6em">Alt+</tspan><tspan x="0" dy="1.2em">1</tspan>
</text>
</g>
<g transform="translate(120, 40)" class="key keypos-1">
<rect rx="4" ry="4" x="-38" y="-38" width="76" height="76" class="key"/>
<text x="0" y="0" class="key tap">
<tspan x="0" dy="-0.6em">Alt+</tspan><tspan x="0" dy="1.2em">2</tspan>
</text>
</g>
<g transform="translate(200, 40)" class="key keypos-2">
<rect rx="4" ry="4" x="-38" y="-38" width="76" height="76" class="key"/>
<text x="0" y="0" class="key tap">
<tspan x="0" dy="-0.6em">Alt+</tspan><tspan x="0" dy="1.2em">3</tspan>
</text>
</g>
<g transform="translate(280, 40)" class="key keypos-3">
<rect rx="4" ry="4" x="-38" y="-38" width="76" height="76" class="key"/>
<text x="0" y="0" class="key tap">
<tspan x="0" dy="-0.6em">Alt+</tspan><tspan x="0" dy="1.2em">4</tspan>
</text>
</g>
<g transform="translate(360, 40)" class="key keypos-4">
<rect rx="4" ry="4" x="-38" y="-38" width="76" height="76" class="key"/>
<text x="0" y="0" class="key tap">
<tspan x="0" dy="-0.6em">Alt+</tspan><tspan x="0" dy="1.2em">5</tspan>
</text>
</g>
<g transform="translate(440, 40)" class="key keypos-5">
<rect rx="4" ry="4" x="-38" y="-38" width="76" height="76" class="key"/>
</g>
<g transform="translate(520, 40)" class="key keypos-6">
<rect rx="4" ry="4" x="-38" y="-38" width="76" height="76" class="key"/>
</g>
<g transform="translate(600, 40)" class="key keypos-7">
<rect rx="4" ry="4" x="-38" y="-38" width="76" height="76" class="key"/>
<text x="0" y="0" class="key tap">MPRV</text>
</g>
<g transform="translate(680, 40)" class="key keypos-8">
<rect rx="4" ry="4" x="-38" y="-38" width="76" height="76" class="key"/>
<text x="0" y="0" class="key tap">VOLD</text>
</g>
<g transform="translate(760, 40)" class="key keypos-9">
<rect rx="4" ry="4" x="-38" y="-38" width="76" height="76" class="key"/>
<text x="0" y="0" class="key tap">VOLU</text>
</g>
<g transform="translate(840, 40)" class="key keypos-10">
<rect rx="4" ry="4" x="-38" y="-38" width="76" height="76" class="key"/>
<text x="0" y="0" class="key tap">MNXT</text>
</g>
<g transform="translate(920, 40)" class="key keypos-11">
<rect rx="4" ry="4" x="-38" y="-38" width="76" height="76" class="key"/>
<use href="#mdi:backspace-reverse-outline" xlink:href="#mdi:backspace-reverse-outline" x="-13" y="-13" height="26" width="26.0" class="key tap glyph mdi:backspace-reverse-outline"/>
</g>
<g transform="translate(40, 120)" class="key keypos-12">
<rect rx="4" ry="4" x="-38" y="-38" width="76" height="76" class="key"/>
<use href="#mdi:apple-keyboard-control" xlink:href="#mdi:apple-keyboard-control" x="-13" y="-13" height="26" width="26.0" class="key tap glyph mdi:apple-keyboard-control"/>
</g>
<g transform="translate(120, 120)" class="key keypos-13">
<rect rx="4" ry="4" x="-38" y="-38" width="76" height="76" class="key"/>
<use href="#mdi:apple-keyboard-option" xlink:href="#mdi:apple-keyboard-option" x="-13" y="-13" height="26" width="26.0" class="key tap glyph mdi:apple-keyboard-option"/>
</g>
<g transform="translate(200, 120)" class="key keypos-14">
<rect rx="4" ry="4" x="-38" y="-38" width="76" height="76" class="key"/>
<use href="#mdi:apple-keyboard-command" xlink:href="#mdi:apple-keyboard-command" x="-13" y="-13" height="26" width="26.0" class="key tap glyph mdi:apple-keyboard-command"/>
</g>
<g transform="translate(280, 120)" class="key keypos-15">
<rect rx="4" ry="4" x="-38" y="-38" width="76" height="76" class="key"/>
<use href="#mdi:apple-keyboard-shift" xlink:href="#mdi:apple-keyboard-shift" x="-13" y="-13" height="26" width="26.0" class="key tap glyph mdi:apple-keyboard-shift"/>
</g>
<g transform="translate(360, 120)" class="key trans keypos-16">
<rect rx="4" ry="4" x="-38" y="-38" width="76" height="76" class="key trans"/>
<text x="0" y="0" class="key trans tap">▽</text>
</g>
<g transform="translate(440, 120)" class="key keypos-17">
<rect rx="4" ry="4" x="-38" y="-38" width="76" height="76" class="key"/>
</g>
<g transform="translate(520, 120)" class="key keypos-18">
<rect rx="4" ry="4" x="-38" y="-38" width="76" height="76" class="key"/>
</g>
<g transform="translate(600, 120)" class="key keypos-19">
<rect rx="4" ry="4" x="-38" y="-38" width="76" height="76" class="key"/>
<use href="#mdi:arrow-left-bold" xlink:href="#mdi:arrow-left-bold" x="-13" y="-13" height="26" width="26.0" class="key tap glyph mdi:arrow-left-bold"/>
</g>
<g transform="translate(680, 120)" class="key keypos-20">
<rect rx="4" ry="4" x="-38" y="-38" width="76" height="76" class="key"/>
<use href="#mdi:arrow-down-bold" xlink:href="#mdi:arrow-down-bold" x="-13" y="-13" height="26" width="26.0" class="key tap glyph mdi:arrow-down-bold"/>
</g>
<g transform="translate(760, 120)" class="key keypos-21">
<rect rx="4" ry="4" x="-38" y="-38" width="76" height="76" class="key"/>
<use href="#mdi:arrow-up-bold" xlink:href="#mdi:arrow-up-bold" x="-13" y="-13" height="26" width="26.0" class="key tap glyph mdi:arrow-up-bold"/>
</g>
<g transform="translate(840, 120)" class="key keypos-22">
<rect rx="4" ry="4" x="-38" y="-38" width="76" height="76" class="key"/>
<use href="#mdi:arrow-right-bold" xlink:href="#mdi:arrow-right-bold" x="-13" y="-13" height="26" width="26.0" class="key tap glyph mdi:arrow-right-bold"/>
</g>
<g transform="translate(920, 120)" class="key backspace keypos-23">
<rect rx="4" ry="4" x="-38" y="-38" width="76" height="76" class="key backspace"/>
<use href="#mdi:backspace" xlink:href="#mdi:backspace" x="-13" y="-13" height="26" width="26.0" class="key backspace tap glyph mdi:backspace"/>
</g>
<g transform="translate(40, 200)" class="key trans keypos-24">
<rect rx="4" ry="4" x="-38" y="-38" width="76" height="76" class="key trans"/>
<text x="0" y="0" class="key trans tap">▽</text>
</g>
<g transform="translate(120, 200)" class="key trans keypos-25">
<rect rx="4" ry="4" x="-38" y="-38" width="76" height="76" class="key trans"/>
<text x="0" y="0" class="key trans tap">▽</text>
</g>
<g transform="translate(200, 200)" class="key trans keypos-26">
<rect rx="4" ry="4" x="-38" y="-38" width="76" height="76" class="key trans"/>
<text x="0" y="0" class="key trans tap">▽</text>
</g>
<g transform="translate(280, 200)" class="key trans keypos-27">
<rect rx="4" ry="4" x="-38" y="-38" width="76" height="76" class="key trans"/>
<text x="0" y="0" class="key trans tap">▽</text>
</g>
<g transform="translate(360, 200)" class="key trans keypos-28">
<rect rx="4" ry="4" x="-38" y="-38" width="76" height="76" class="key trans"/>
<text x="0" y="0" class="key trans tap">▽</text>
</g>
<g transform="translate(440, 200)" class="key keypos-29">
<rect rx="4" ry="4" x="-38" y="-38" width="76" height="76" class="key"/>
</g>
<g transform="translate(520, 200)" class="key keypos-30">
<rect rx="4" ry="4" x="-38" y="-38" width="76" height="76" class="key"/>
</g>
<g transform="translate(600, 200)" class="key trans keypos-31">
<rect rx="4" ry="4" x="-38" y="-38" width="76" height="76" class="key trans"/>
<text x="0" y="0" class="key trans tap">▽</text>
</g>
<g transform="translate(680, 200)" class="key keypos-32">
<rect rx="4" ry="4" x="-38" y="-38" width="76" height="76" class="key"/>
<text x="0" y="0" class="key tap">BRID</text>
</g>
<g transform="translate(760, 200)" class="key keypos-33">
<rect rx="4" ry="4" x="-38" y="-38" width="76" height="76" class="key"/>
<text x="0" y="0" class="key tap">BRIU</text>
</g>
<g transform="translate(840, 200)" class="key keypos-34">
<rect rx="4" ry="4" x="-38" y="-38" width="76" height="76" class="key"/>
<text x="0" y="0" class="key tap">MUTE</text>
</g>
<g transform="translate(920, 200)" class="key keypos-35">
<rect rx="4" ry="4" x="-38" y="-38" width="76" height="76" class="key"/>
<text x="0" y="0" class="key tap">ENT</text>
</g>
<g transform="translate(40, 280)" class="key keypos-36">
<rect rx="4" ry="4" x="-38" y="-38" width="76" height="76" class="key"/>
</g>
<g transform="translate(120, 280)" class="key keypos-37">
<rect rx="4" ry="4" x="-38" y="-38" width="76" height="76" class="key"/>
</g>
<g transform="translate(200, 280)" class="key keypos-38">
<rect rx="4" ry="4" x="-38" y="-38" width="76" height="76" class="key"/>
</g>
<g transform="translate(280, 280)" class="key trans keypos-39">
<rect rx="4" ry="4" x="-38" y="-38" width="76" height="76" class="key trans"/>
<text x="0" y="0" class="key trans tap">▽</text>
</g>
<g transform="translate(360, 280)" class="key trans keypos-40">
<rect rx="4" ry="4" x="-38" y="-38" width="76" height="76" class="key trans"/>
<text x="0" y="0" class="key trans tap">▽</text>
</g>
<g transform="translate(440, 280)" class="key keypos-41">
<rect rx="4" ry="4" x="-38" y="-38" width="76" height="76" class="key"/>
</g>
<g transform="translate(520, 280)" class="key keypos-42">
<rect rx="4" ry="4" x="-38" y="-38" width="76" height="76" class="key"/>
</g>
<g transform="translate(600, 280)" class="key trans keypos-43">
<rect rx="4" ry="4" x="-38" y="-38" width="76" height="76" class="key trans"/>
<text x="0" y="0" class="key trans tap">▽</text>
</g>
<g transform="translate(680, 280)" class="key trans keypos-44">
<rect rx="4" ry="4" x="-38" y="-38" width="76" height="76" class="key trans"/>
<text x="0" y="0" class="key trans tap">▽</text>
</g>
<g transform="translate(760, 280)" class="key keypos-45">
<rect rx="4" ry="4" x="-38" y="-38" width="76" height="76" class="key"/>
</g>
<g transform="translate(840, 280)" class="key keypos-46">
<rect rx="4" ry="4" x="-38" y="-38" width="76" height="76" class="key"/>
</g>
<g transform="translate(920, 280)" class="key keypos-47">
<rect rx="4" ry="4" x="-38" y="-38" width="76" height="76" class="key"/>
<text x="0" y="0" class="key tap">
<tspan x="0" dy="-0.6em">QK</tspan><tspan x="0" dy="1.2em">BOOT</tspan>
</text>
</g>
</g>
</g>
<g transform="translate(30, 1128)" class="layer-L3">
<text x="0" y="28" class="label">L3:</text>
<g transform="translate(0, 56)">
<g transform="translate(40, 40)" class="key keypos-0">
<rect rx="4" ry="4" x="-38" y="-38" width="76" height="76" class="key"/>
<text x="0" y="0" class="key tap">1</text>
</g>
<g transform="translate(120, 40)" class="key keypos-1">
<rect rx="4" ry="4" x="-38" y="-38" width="76" height="76" class="key"/>
<text x="0" y="0" class="key tap">2</text>
</g>
<g transform="translate(200, 40)" class="key keypos-2">
<rect rx="4" ry="4" x="-38" y="-38" width="76" height="76" class="key"/>
<text x="0" y="0" class="key tap">3</text>
</g>
<g transform="translate(280, 40)" class="key keypos-3">
<rect rx="4" ry="4" x="-38" y="-38" width="76" height="76" class="key"/>
<text x="0" y="0" class="key tap">4</text>
</g>
<g transform="translate(360, 40)" class="key keypos-4">
<rect rx="4" ry="4" x="-38" y="-38" width="76" height="76" class="key"/>
<text x="0" y="0" class="key tap">5</text>
</g>
<g transform="translate(440, 40)" class="key keypos-5">
<rect rx="4" ry="4" x="-38" y="-38" width="76" height="76" class="key"/>
</g>
<g transform="translate(520, 40)" class="key keypos-6">
<rect rx="4" ry="4" x="-38" y="-38" width="76" height="76" class="key"/>
</g>
<g transform="translate(600, 40)" class="key keypos-7">
<rect rx="4" ry="4" x="-38" y="-38" width="76" height="76" class="key"/>
<text x="0" y="0" class="key tap">6</text>
</g>
<g transform="translate(680, 40)" class="key keypos-8">
<rect rx="4" ry="4" x="-38" y="-38" width="76" height="76" class="key"/>
<text x="0" y="0" class="key tap">7</text>
</g>
<g transform="translate(760, 40)" class="key keypos-9">
<rect rx="4" ry="4" x="-38" y="-38" width="76" height="76" class="key"/>
<text x="0" y="0" class="key tap">8</text>
</g>
<g transform="translate(840, 40)" class="key keypos-10">
<rect rx="4" ry="4" x="-38" y="-38" width="76" height="76" class="key"/>
<text x="0" y="0" class="key tap">9</text>
</g>
<g transform="translate(920, 40)" class="key keypos-11">
<rect rx="4" ry="4" x="-38" y="-38" width="76" height="76" class="key"/>
<text x="0" y="0" class="key tap">0</text>
</g>
<g transform="translate(40, 120)" class="key keypos-12">
<rect rx="4" ry="4" x="-38" y="-38" width="76" height="76" class="key"/>
<use href="#mdi:apple-keyboard-control" xlink:href="#mdi:apple-keyboard-control" x="-13" y="-13" height="26" width="26.0" class="key tap glyph mdi:apple-keyboard-control"/>
</g>
<g transform="translate(120, 120)" class="key keypos-13">
<rect rx="4" ry="4" x="-38" y="-38" width="76" height="76" class="key"/>
<use href="#mdi:apple-keyboard-option" xlink:href="#mdi:apple-keyboard-option" x="-13" y="-13" height="26" width="26.0" class="key tap glyph mdi:apple-keyboard-option"/>
</g>
<g transform="translate(200, 120)" class="key keypos-14">
<rect rx="4" ry="4" x="-38" y="-38" width="76" height="76" class="key"/>
<use href="#mdi:apple-keyboard-command" xlink:href="#mdi:apple-keyboard-command" x="-13" y="-13" height="26" width="26.0" class="key tap glyph mdi:apple-keyboard-command"/>
</g>
<g transform="translate(280, 120)" class="key keypos-15">
<rect rx="4" ry="4" x="-38" y="-38" width="76" height="76" class="key"/>
<use href="#mdi:apple-keyboard-shift" xlink:href="#mdi:apple-keyboard-shift" x="-13" y="-13" height="26" width="26.0" class="key tap glyph mdi:apple-keyboard-shift"/>
</g>
<g transform="translate(360, 120)" class="key trans keypos-16">
<rect rx="4" ry="4" x="-38" y="-38" width="76" height="76" class="key trans"/>
<text x="0" y="0" class="key trans tap">▽</text>
</g>
<g transform="translate(440, 120)" class="key keypos-17">
<rect rx="4" ry="4" x="-38" y="-38" width="76" height="76" class="key"/>
</g>
<g transform="translate(520, 120)" class="key keypos-18">
<rect rx="4" ry="4" x="-38" y="-38" width="76" height="76" class="key"/>
</g>
<g transform="translate(600, 120)" class="key trans keypos-19">
<rect rx="4" ry="4" x="-38" y="-38" width="76" height="76" class="key trans"/>
<text x="0" y="0" class="key trans tap">▽</text>
</g>
<g transform="translate(680, 120)" class="key keypos-20">
<rect rx="4" ry="4" x="-38" y="-38" width="76" height="76" class="key"/>
<use href="#mdi:apple-keyboard-shift" xlink:href="#mdi:apple-keyboard-shift" x="-13" y="-13" height="26" width="26.0" class="key tap glyph mdi:apple-keyboard-shift"/>
</g>
<g transform="translate(760, 120)" class="key keypos-21">
<rect rx="4" ry="4" x="-38" y="-38" width="76" height="76" class="key"/>
<use href="#mdi:apple-keyboard-command" xlink:href="#mdi:apple-keyboard-command" x="-13" y="-13" height="26" width="26.0" class="key tap glyph mdi:apple-keyboard-command"/>
</g>
<g transform="translate(840, 120)" class="key keypos-22">
<rect rx="4" ry="4" x="-38" y="-38" width="76" height="76" class="key"/>
<use href="#mdi:apple-keyboard-option" xlink:href="#mdi:apple-keyboard-option" x="-13" y="-13" height="26" width="26.0" class="key tap glyph mdi:apple-keyboard-option"/>
</g>
<g transform="translate(920, 120)" class="key keypos-23">
<rect rx="4" ry="4" x="-38" y="-38" width="76" height="76" class="key"/>
<use href="#mdi:apple-keyboard-control" xlink:href="#mdi:apple-keyboard-control" x="-13" y="-13" height="26" width="26.0" class="key tap glyph mdi:apple-keyboard-control"/>
</g>
<g transform="translate(40, 200)" class="key trans keypos-24">
<rect rx="4" ry="4" x="-38" y="-38" width="76" height="76" class="key trans"/>
<text x="0" y="0" class="key trans tap">▽</text>
</g>
<g transform="translate(120, 200)" class="key trans keypos-25">
<rect rx="4" ry="4" x="-38" y="-38" width="76" height="76" class="key trans"/>
<text x="0" y="0" class="key trans tap">▽</text>
</g>
<g transform="translate(200, 200)" class="key trans keypos-26">
<rect rx="4" ry="4" x="-38" y="-38" width="76" height="76" class="key trans"/>
<text x="0" y="0" class="key trans tap">▽</text>
</g>
<g transform="translate(280, 200)" class="key trans keypos-27">
<rect rx="4" ry="4" x="-38" y="-38" width="76" height="76" class="key trans"/>
<text x="0" y="0" class="key trans tap">▽</text>
</g>
<g transform="translate(360, 200)" class="key trans keypos-28">
<rect rx="4" ry="4" x="-38" y="-38" width="76" height="76" class="key trans"/>
<text x="0" y="0" class="key trans tap">▽</text>
</g>
<g transform="translate(440, 200)" class="key keypos-29">
<rect rx="4" ry="4" x="-38" y="-38" width="76" height="76" class="key"/>
</g>
<g transform="translate(520, 200)" class="key keypos-30">
<rect rx="4" ry="4" x="-38" y="-38" width="76" height="76" class="key"/>
</g>
<g transform="translate(600, 200)" class="key trans keypos-31">
<rect rx="4" ry="4" x="-38" y="-38" width="76" height="76" class="key trans"/>
<text x="0" y="0" class="key trans tap">▽</text>
</g>
<g transform="translate(680, 200)" class="key trans keypos-32">
<rect rx="4" ry="4" x="-38" y="-38" width="76" height="76" class="key trans"/>
<text x="0" y="0" class="key trans tap">▽</text>
</g>
<g transform="translate(760, 200)" class="key trans keypos-33">
<rect rx="4" ry="4" x="-38" y="-38" width="76" height="76" class="key trans"/>
<text x="0" y="0" class="key trans tap">▽</text>
</g>
<g transform="translate(840, 200)" class="key trans keypos-34">
<rect rx="4" ry="4" x="-38" y="-38" width="76" height="76" class="key trans"/>
<text x="0" y="0" class="key trans tap">▽</text>
</g>
<g transform="translate(920, 200)" class="key trans keypos-35">
<rect rx="4" ry="4" x="-38" y="-38" width="76" height="76" class="key trans"/>
<text x="0" y="0" class="key trans tap">▽</text>
</g>
<g transform="translate(40, 280)" class="key keypos-36">
<rect rx="4" ry="4" x="-38" y="-38" width="76" height="76" class="key"/>
</g>
<g transform="translate(120, 280)" class="key keypos-37">
<rect rx="4" ry="4" x="-38" y="-38" width="76" height="76" class="key"/>
</g>
<g transform="translate(200, 280)" class="key keypos-38">
<rect rx="4" ry="4" x="-38" y="-38" width="76" height="76" class="key"/>
</g>
<g transform="translate(280, 280)" class="key trans keypos-39">
<rect rx="4" ry="4" x="-38" y="-38" width="76" height="76" class="key trans"/>
<text x="0" y="0" class="key trans tap">▽</text>
</g>
<g transform="translate(360, 280)" class="key trans keypos-40">
<rect rx="4" ry="4" x="-38" y="-38" width="76" height="76" class="key trans"/>
<text x="0" y="0" class="key trans tap">▽</text>
</g>
<g transform="translate(440, 280)" class="key keypos-41">
<rect rx="4" ry="4" x="-38" y="-38" width="76" height="76" class="key"/>
</g>
<g transform="translate(520, 280)" class="key keypos-42">
<rect rx="4" ry="4" x="-38" y="-38" width="76" height="76" class="key"/>
</g>
<g transform="translate(600, 280)" class="key trans keypos-43">
<rect rx="4" ry="4" x="-38" y="-38" width="76" height="76" class="key trans"/>
<text x="0" y="0" class="key trans tap">▽</text>
</g>
<g transform="translate(680, 280)" class="key trans keypos-44">
<rect rx="4" ry="4" x="-38" y="-38" width="76" height="76" class="key trans"/>
<text x="0" y="0" class="key trans tap">▽</text>
</g>
<g transform="translate(760, 280)" class="key keypos-45">
<rect rx="4" ry="4" x="-38" y="-38" width="76" height="76" class="key"/>
</g>
<g transform="translate(840, 280)" class="key keypos-46">
<rect rx="4" ry="4" x="-38" y="-38" width="76" height="76" class="key"/>
</g>
<g transform="translate(920, 280)" class="key keypos-47">
<rect rx="4" ry="4" x="-38" y="-38" width="76" height="76" class="key"/>
</g>
</g>
</g>
</svg>
